<svg width="1280" height="720" xmlns="http://www.w3.org/2000/svg" xmlns:xlink="http://www.w3.org/1999/xlink" overflow="hidden"><defs><clipPath id="clip0"><rect x="0" y="0" width="1280" height="720"/></clipPath></defs><g clip-path="url(#clip0)"><rect x="0" y="0" width="1280" height="720" fill="#FFFFFF"/><rect x="637" y="440" width="622" height="19" fill="#D9D9D9"/><rect x="637" y="476" width="622" height="18" fill="#D9D9D9"/><rect x="637" y="561" width="622" height="18" fill="#D9D9D9"/><rect x="10" y="440" width="622" height="19" fill="#D9D9D9"/><rect x="10" y="476" width="622" height="18" fill="#D9D9D9"/><rect x="10" y="561" width="622" height="18" fill="#D9D9D9"/><text font-family="Fira Code,Fira Code_MSFontService,sans-serif" font-weight="400" font-size="13" transform="translate(17.2735 420)">void BFS(Graph G, int v){<tspan font-size="13" x="320" y="0">// </tspan><tspan font-family="Alibaba PuHuiTi,Alibaba PuHuiTi_MSFontService,sans-serif" font-size="13" x="344.5" y="0">从顶点</tspan>v<tspan font-family="Alibaba PuHuiTi,Alibaba PuHuiTi_MSFontService,sans-serif" font-size="13" x="392.167" y="0">出发</tspan><tspan font-family="Alibaba PuHuiTi,Alibaba PuHuiTi_MSFontService,sans-serif" font-size="13" x="422.167" y="0">广度优先遍历图</tspan>G<tspan font-size="13" x="32.6667" y="17">visited[v] = true;</tspan><tspan font-size="13" x="320" y="17">// </tspan><tspan font-family="Alibaba PuHuiTi,Alibaba PuHuiTi_MSFontService,sans-serif" font-size="13" x="344.5" y="17">对</tspan>v<tspan font-family="Alibaba PuHuiTi,Alibaba PuHuiTi_MSFontService,sans-serif" font-size="13" x="365.833" y="17">做已访问标记</tspan><tspan font-size="13" x="32.6667" y="35">Enqueue(Q, v);</tspan><tspan font-size="13" x="320" y="35">// </tspan><tspan font-family="Alibaba PuHuiTi,Alibaba PuHuiTi_MSFontService,sans-serif" font-size="13" x="344.5" y="35">顶点</tspan>v<tspan font-family="Alibaba PuHuiTi,Alibaba PuHuiTi_MSFontService,sans-serif" font-size="13" x="379" y="35">入队列</tspan>Q<tspan font-size="13" x="32.6667" y="52">while(!</tspan><tspan font-size="13" x="89.8333" y="52">isEmpty</tspan>(Q)){<tspan font-size="13" x="65.3333" y="69">DeQueue</tspan>(Q, v);<tspan font-size="13" x="320" y="69">// </tspan><tspan font-family="Alibaba PuHuiTi,Alibaba PuHuiTi_MSFontService,sans-serif" font-size="13" x="344.5" y="69">顶点</tspan>v<tspan font-family="Alibaba PuHuiTi,Alibaba PuHuiTi_MSFontService,sans-serif" font-size="13" x="379" y="69">出队列</tspan>Q<tspan font-size="13" x="65.3333" y="87">visit(v);</tspan><tspan font-size="13" x="320" y="87">// </tspan><tspan font-family="Alibaba PuHuiTi,Alibaba PuHuiTi_MSFontService,sans-serif" font-size="13" x="344.5" y="87">访问顶点</tspan>v<tspan font-size="13" x="65.3333" y="104">for(int w = </tspan><tspan font-size="13" x="163.333" y="104">FirstNeighbor</tspan>(G, v); w &gt;= 0; w = NextNeighbor(G, v, w))<tspan font-size="13" x="98" y="121">if(!visited[w]){</tspan><tspan font-size="13" x="320" y="121">// w</tspan><tspan font-family="Alibaba PuHuiTi,Alibaba PuHuiTi_MSFontService,sans-serif" font-size="13" x="352.667" y="121">为</tspan><tspan font-size="13" x="365.833" y="121">v</tspan><tspan font-family="Alibaba PuHuiTi,Alibaba PuHuiTi_MSFontService,sans-serif" font-size="13" x="374" y="121">尚未访问的邻接顶点</tspan><tspan font-size="13" x="130.667" y="139">visited[w] = true;</tspan><tspan font-size="13" x="320" y="139">// </tspan><tspan font-family="Alibaba PuHuiTi,Alibaba PuHuiTi_MSFontService,sans-serif" font-size="13" x="344.5" y="139">对</tspan>w<tspan font-family="Alibaba PuHuiTi,Alibaba PuHuiTi_MSFontService,sans-serif" font-size="13" x="365.833" y="139">做已访问标记</tspan><tspan font-size="13" x="130.667" y="156">EnQueue</tspan><tspan font-size="13" x="187.833" y="156">(Q, w);</tspan><tspan font-size="13" x="320" y="156">// </tspan><tspan font-family="Alibaba PuHuiTi,Alibaba PuHuiTi_MSFontService,sans-serif" font-size="13" x="344.5" y="156">顶点</tspan>w<tspan font-family="Alibaba PuHuiTi,Alibaba PuHuiTi_MSFontService,sans-serif" font-size="13" x="379" y="156">入队列</tspan><tspan font-size="13" x="98" y="173">}</tspan><tspan font-size="13" x="32.6667" y="191">}</tspan><tspan font-size="13" x="0" y="208">}</tspan></text><path d="M10 407.422C10 402.771 13.7706 399 18.4219 399L623.578 399C628.229 399 632 402.771 632 407.422L632 630.578C632 635.229 628.229 639 623.578 639L18.4219 639C13.7706 639 10 635.229 10 630.578Z" stroke="#7F7F7F" stroke-width="2" stroke-miterlimit="8" stroke-dasharray="6 2" fill="none" fill-rule="evenodd"/><path d="M10 379.87C10 377.733 11.7326 376 13.87 376L116.13 376C118.267 376 120 377.733 120 379.87L120 396.13C120 398.267 118.267 400 116.13 400L13.87 400C11.7326 400 10 398.267 10 396.13Z" fill="#7F7F7F" fill-rule="evenodd"/><text fill="#FFFFFF" font-family="Alibaba PuHuiTi,Alibaba PuHuiTi_MSFontService,sans-serif" font-weight="400" font-size="15" transform="translate(21.0388 392)">广度优先遍历<tspan fill="#000000" font-family="Fira Code,Fira Code_MSFontService,sans-serif" font-size="13" x="622.847" y="28">void </tspan><tspan fill="#000000" font-family="Fira Code,Fira Code_MSFontService,sans-serif" font-size="13" x="663.68" y="28">DFS_Non_RC</tspan><tspan fill="#000000" font-family="Fira Code,Fira Code_MSFontService,sans-serif" font-size="13" x="745.347" y="28">(</tspan><tspan fill="#000000" font-family="Fira Code,Fira Code_MSFontService,sans-serif" font-size="13" x="753.514" y="28">AGraph</tspan><tspan fill="#000000" font-family="Fira Code,Fira Code_MSFontService,sans-serif" font-size="13" x="810.68" y="28">&amp;G, int v){</tspan><tspan fill="#000000" font-family="Fira Code,Fira Code_MSFontService,sans-serif" font-size="13" x="655.514" y="45">visited[v] = true;</tspan><tspan fill="#000000" font-family="Fira Code,Fira Code_MSFontService,sans-serif" font-size="13" x="942.847" y="45">// </tspan><tspan fill="#000000" font-size="13" x="967.347" y="45">对</tspan><tspan fill="#000000" font-family="Fira Code,Fira Code_MSFontService,sans-serif" font-size="13" x="980.514" y="45">v</tspan><tspan fill="#000000" font-size="13" x="988.68" y="45">做已访问标记</tspan><tspan fill="#000000" font-family="Fira Code,Fira Code_MSFontService,sans-serif" font-size="13" x="655.514" y="63">Push(S, v);</tspan><tspan fill="#000000" font-family="Fira Code,Fira Code_MSFontService,sans-serif" font-size="13" x="942.847" y="63">// </tspan><tspan fill="#000000" font-size="13" x="967.347" y="63">顶点</tspan><tspan fill="#000000" font-family="Fira Code,Fira Code_MSFontService,sans-serif" font-size="13" x="993.68" y="63">v</tspan><tspan fill="#000000" font-size="13" x="1001.85" y="63">进栈</tspan><tspan fill="#000000" font-family="Fira Code,Fira Code_MSFontService,sans-serif" font-size="13" x="1028.18" y="63">S</tspan><tspan fill="#000000" font-family="Fira Code,Fira Code_MSFontService,sans-serif" font-size="13" x="655.514" y="80">while(!</tspan><tspan fill="#000000" font-family="Fira Code,Fira Code_MSFontService,sans-serif" font-size="13" x="712.68" y="80">isEmpty</tspan><tspan fill="#000000" font-family="Fira Code,Fira Code_MSFontService,sans-serif" font-size="13" x="769.847" y="80">(S)){</tspan><tspan fill="#000000" font-family="Fira Code,Fira Code_MSFontService,sans-serif" font-size="13" x="688.18" y="97">Pop(S, v);</tspan><tspan fill="#000000" font-family="Fira Code,Fira Code_MSFontService,sans-serif" font-size="13" x="942.847" y="97">// </tspan><tspan fill="#000000" font-size="13" x="967.347" y="97">栈中退出一个顶点</tspan><tspan fill="#000000" font-family="Fira Code,Fira Code_MSFontService,sans-serif" font-size="13" x="688.18" y="115">visit(v);</tspan><tspan fill="#000000" font-family="Fira Code,Fira Code_MSFontService,sans-serif" font-size="13" x="942.847" y="115">// </tspan><tspan fill="#000000" font-size="13" x="967.347" y="115">访问顶点</tspan><tspan fill="#000000" font-family="Fira Code,Fira Code_MSFontService,sans-serif" font-size="13" x="1020.01" y="115">v</tspan><tspan fill="#000000" font-family="Fira Code,Fira Code_MSFontService,sans-serif" font-size="13" x="688.18" y="132">for(int w = </tspan><tspan fill="#000000" font-family="Fira Code,Fira Code_MSFontService,sans-serif" font-size="13" x="786.18" y="132">FirstNeighbor</tspan><tspan fill="#000000" font-family="Fira Code,Fira Code_MSFontService,sans-serif" font-size="13" x="892.347" y="132">(G, v); w &gt;= 0; w = </tspan><tspan fill="#000000" font-family="Fira Code,Fira Code_MSFontService,sans-serif" font-size="13" x="1055.68" y="132">NextNeighbor</tspan><tspan fill="#000000" font-family="Fira Code,Fira Code_MSFontService,sans-serif" font-size="13" x="1153.68" y="132">(G, v, w))</tspan><tspan fill="#000000" font-family="Fira Code,Fira Code_MSFontService,sans-serif" font-size="13" x="720.847" y="149">if(!visited[w]){</tspan><tspan fill="#000000" font-family="Fira Code,Fira Code_MSFontService,sans-serif" font-size="13" x="942.847" y="149">// </tspan><tspan fill="#000000" font-size="13" x="967.347" y="149">未进过栈的顶点进栈</tspan><tspan fill="#000000" font-family="Fira Code,Fira Code_MSFontService,sans-serif" font-size="13" x="753.514" y="167">visited[w] = true;</tspan><tspan fill="#000000" font-family="Fira Code,Fira Code_MSFontService,sans-serif" font-size="13" x="942.847" y="167">// </tspan><tspan fill="#000000" font-size="13" x="967.347" y="167">做标记</tspan><tspan fill="#000000" font-size="13" x="1010.51" y="167">以免再次进栈</tspan><tspan fill="#000000" font-family="Fira Code,Fira Code_MSFontService,sans-serif" font-size="13" x="753.514" y="184">Push(S, w);</tspan><tspan fill="#000000" font-family="Fira Code,Fira Code_MSFontService,sans-serif" font-size="13" x="720.847" y="201">}</tspan><tspan fill="#000000" font-family="Fira Code,Fira Code_MSFontService,sans-serif" font-size="13" x="655.514" y="219">}</tspan><tspan fill="#000000" font-family="Fira Code,Fira Code_MSFontService,sans-serif" font-size="13" x="622.847" y="236">}</tspan></text><path d="M638 407.422C638 402.771 641.771 399 646.422 399L1251.58 399C1256.23 399 1260 402.771 1260 407.422L1260 630.578C1260 635.229 1256.23 639 1251.58 639L646.422 639C641.771 639 638 635.229 638 630.578Z" stroke="#7F7F7F" stroke-width="2" stroke-miterlimit="8" stroke-dasharray="6 2" fill="none" fill-rule="evenodd"/><path d="M638 379.87C638 377.733 639.733 376 641.87 376L744.13 376C746.267 376 748 377.733 748 379.87L748 396.13C748 398.267 746.267 400 744.13 400L641.87 400C639.733 400 638 398.267 638 396.13Z" fill="#7F7F7F" fill-rule="evenodd"/><text fill="#FFFFFF" font-family="Alibaba PuHuiTi,Alibaba PuHuiTi_MSFontService,sans-serif" font-weight="400" font-size="15" transform="translate(648.927 392)">深度优先遍历<tspan fill="#000000" font-family="Fira Code,Fira Code_MSFontService,sans-serif" font-size="13" x="-633.613" y="-268">void BFS(Graph G, int v){</tspan><tspan fill="#000000" font-family="Fira Code,Fira Code_MSFontService,sans-serif" font-size="13" x="-313.613" y="-268">// </tspan><tspan fill="#000000" font-size="13" x="-289.113" y="-268">从顶点</tspan><tspan fill="#000000" font-family="Fira Code,Fira Code_MSFontService,sans-serif" font-size="13" x="-249.613" y="-268">v</tspan><tspan fill="#000000" font-size="13" x="-241.446" y="-268">出发</tspan><tspan fill="#000000" font-size="13" x="-211.446" y="-268">广度优先遍历图</tspan><tspan fill="#000000" font-family="Fira Code,Fira Code_MSFontService,sans-serif" font-size="13" x="-119.28" y="-268">G</tspan><tspan fill="#000000" font-family="Fira Code,Fira Code_MSFontService,sans-serif" font-size="13" x="-600.946" y="-251">visit(v);</tspan><tspan fill="#000000" font-family="Fira Code,Fira Code_MSFontService,sans-serif" font-size="13" x="-313.613" y="-251">// </tspan><tspan fill="#000000" font-size="13" x="-289.113" y="-251">访问顶点</tspan><tspan fill="#000000" font-family="Fira Code,Fira Code_MSFontService,sans-serif" font-size="13" x="-236.446" y="-251">v</tspan><tspan fill="#000000" font-family="Fira Code,Fira Code_MSFontService,sans-serif" font-size="13" x="-600.946" y="-233">visited[v] = true;</tspan><tspan fill="#000000" font-family="Fira Code,Fira Code_MSFontService,sans-serif" font-size="13" x="-313.613" y="-233">// </tspan><tspan fill="#000000" font-size="13" x="-289.113" y="-233">对</tspan><tspan fill="#000000" font-family="Fira Code,Fira Code_MSFontService,sans-serif" font-size="13" x="-275.946" y="-233">v</tspan><tspan fill="#000000" font-size="13" x="-267.78" y="-233">做已访问标记</tspan><tspan fill="#000000" font-family="Fira Code,Fira Code_MSFontService,sans-serif" font-size="13" x="-600.946" y="-216">Enqueue(Q, v);</tspan><tspan fill="#000000" font-family="Fira Code,Fira Code_MSFontService,sans-serif" font-size="13" x="-313.613" y="-216">// </tspan><tspan fill="#000000" font-size="13" x="-289.113" y="-216">顶点</tspan><tspan fill="#000000" font-family="Fira Code,Fira Code_MSFontService,sans-serif" font-size="13" x="-262.78" y="-216">v</tspan><tspan fill="#000000" font-size="13" x="-254.613" y="-216">入队列</tspan><tspan fill="#000000" font-family="Fira Code,Fira Code_MSFontService,sans-serif" font-size="13" x="-215.113" y="-216">Q</tspan><tspan fill="#000000" font-family="Fira Code,Fira Code_MSFontService,sans-serif" font-size="13" x="-600.946" y="-199">while(!</tspan><tspan fill="#000000" font-family="Fira Code,Fira Code_MSFontService,sans-serif" font-size="13" x="-543.78" y="-199">isEmpty</tspan><tspan fill="#000000" font-family="Fira Code,Fira Code_MSFontService,sans-serif" font-size="13" x="-486.613" y="-199">(Q)){</tspan><tspan fill="#000000" font-family="Fira Code,Fira Code_MSFontService,sans-serif" font-size="13" x="-568.28" y="-181">DeQueue</tspan><tspan fill="#000000" font-family="Fira Code,Fira Code_MSFontService,sans-serif" font-size="13" x="-511.113" y="-181">(Q, v);</tspan><tspan fill="#000000" font-family="Fira Code,Fira Code_MSFontService,sans-serif" font-size="13" x="-313.613" y="-181">// </tspan><tspan fill="#000000" font-size="13" x="-289.113" y="-181">顶点</tspan><tspan fill="#000000" font-family="Fira Code,Fira Code_MSFontService,sans-serif" font-size="13" x="-262.78" y="-181">v</tspan><tspan fill="#000000" font-size="13" x="-254.613" y="-181">出队列</tspan><tspan fill="#000000" font-family="Fira Code,Fira Code_MSFontService,sans-serif" font-size="13" x="-215.113" y="-181">Q</tspan><tspan fill="#000000" font-family="Fira Code,Fira Code_MSFontService,sans-serif" font-size="13" x="-568.28" y="-164">for(int w = </tspan><tspan fill="#000000" font-family="Fira Code,Fira Code_MSFontService,sans-serif" font-size="13" x="-470.28" y="-164">FirstNeighbor</tspan><tspan fill="#000000" font-family="Fira Code,Fira Code_MSFontService,sans-serif" font-size="13" x="-364.113" y="-164">(G, v); w &gt;= 0; w = </tspan><tspan fill="#000000" font-family="Fira Code,Fira Code_MSFontService,sans-serif" font-size="13" x="-200.78" y="-164">NextNeighbor</tspan><tspan fill="#000000" font-family="Fira Code,Fira Code_MSFontService,sans-serif" font-size="13" x="-102.78" y="-164">(G, v, w))</tspan><tspan fill="#000000" font-family="Fira Code,Fira Code_MSFontService,sans-serif" font-size="13" x="-535.613" y="-147">if(!visited[w]){</tspan><tspan fill="#000000" font-family="Fira Code,Fira Code_MSFontService,sans-serif" font-size="13" x="-313.613" y="-147">// w</tspan><tspan fill="#000000" font-size="13" x="-280.946" y="-147">为</tspan><tspan fill="#000000" font-family="Fira Code,Fira Code_MSFontService,sans-serif" font-size="13" x="-267.78" y="-147">v</tspan><tspan fill="#000000" font-size="13" x="-259.613" y="-147">尚未访问的邻接顶点</tspan><tspan fill="#000000" font-family="Fira Code,Fira Code_MSFontService,sans-serif" font-size="13" x="-502.946" y="-129">visit(w);</tspan><tspan fill="#000000" font-family="Fira Code,Fira Code_MSFontService,sans-serif" font-size="13" x="-313.613" y="-129">// </tspan><tspan fill="#000000" font-size="13" x="-289.113" y="-129">访问顶点</tspan><tspan fill="#000000" font-family="Fira Code,Fira Code_MSFontService,sans-serif" font-size="13" x="-236.446" y="-129">w</tspan><tspan fill="#000000" font-family="Fira Code,Fira Code_MSFontService,sans-serif" font-size="13" x="-502.946" y="-112">visited[w] = true;</tspan><tspan fill="#000000" font-family="Fira Code,Fira Code_MSFontService,sans-serif" font-size="13" x="-313.613" y="-112">// </tspan><tspan fill="#000000" font-size="13" x="-289.113" y="-112">对</tspan><tspan fill="#000000" font-family="Fira Code,Fira Code_MSFontService,sans-serif" font-size="13" x="-275.946" y="-112">w</tspan><tspan fill="#000000" font-size="13" x="-267.78" y="-112">做已访问标记</tspan><tspan fill="#000000" font-family="Fira Code,Fira Code_MSFontService,sans-serif" font-size="13" x="-502.946" y="-95">EnQueue</tspan><tspan fill="#000000" font-family="Fira Code,Fira Code_MSFontService,sans-serif" font-size="13" x="-445.78" y="-95">(Q, w);</tspan><tspan fill="#000000" font-family="Fira Code,Fira Code_MSFontService,sans-serif" font-size="13" x="-313.613" y="-95">// </tspan><tspan fill="#000000" font-size="13" x="-289.113" y="-95">顶点</tspan><tspan fill="#000000" font-family="Fira Code,Fira Code_MSFontService,sans-serif" font-size="13" x="-262.78" y="-95">w</tspan><tspan fill="#000000" font-size="13" x="-254.613" y="-95">入队列</tspan><tspan fill="#000000" font-family="Fira Code,Fira Code_MSFontService,sans-serif" font-size="13" x="-535.613" y="-77">}// if</tspan><tspan fill="#000000" font-family="Fira Code,Fira Code_MSFontService,sans-serif" font-size="13" x="-600.946" y="-60">}// while</tspan><tspan fill="#000000" font-family="Fira Code,Fira Code_MSFontService,sans-serif" font-size="13" x="-633.613" y="-43">}</tspan></text><path d="M6 113.772C6 108.927 9.92745 105 14.7722 105L619.228 105C624.073 105 628 108.927 628 113.772L628 346.228C628 351.073 624.073 355 619.228 355L14.7722 355C9.92745 355 6 351.073 6 346.228Z" stroke="#7F7F7F" stroke-width="2" stroke-miterlimit="8" stroke-dasharray="6 2" fill="none" fill-rule="evenodd"/><path d="M6 85.0313C6 82.8049 7.80487 81 10.0313 81L111.969 81C114.195 81 116 82.8049 116 85.0313L116 101.969C116 104.195 114.195 106 111.969 106L10.0313 106C7.80487 106 6 104.195 6 101.969Z" fill="#7F7F7F" fill-rule="evenodd"/><text fill="#FFFFFF" font-family="Alibaba PuHuiTi,Alibaba PuHuiTi_MSFontService,sans-serif" font-weight="400" font-size="15" transform="translate(16.4849 98)">广度优先遍历</text><path d="M318.163 355.431 318.579 359.409 317.253 359.548 316.837 355.569ZM318.717 360.735 319.133 364.714 317.807 364.852 317.391 360.874ZM319.272 366.04 319.688 370.018 318.362 370.157 317.946 366.178ZM319.826 371.344 320.242 375.322 318.916 375.461 318.5 371.483ZM320.381 376.649 320.796 380.627 319.47 380.765 319.054 376.787ZM320.935 381.953 321.351 385.931 320.025 386.07 319.609 382.092ZM321.489 387.257 321.905 391.236 320.579 391.374 320.163 387.396ZM322.044 392.562 322.072 392.83 320.746 392.968 320.718 392.7ZM325.248 391.157 322.102 399.53 317.292 391.989Z" fill="#7F7F7F"/><text fill="#7F7F7F" font-family="Alibaba PuHuiTi,Alibaba PuHuiTi_MSFontService,sans-serif" font-weight="400" font-size="15" transform="translate(326.224 382)">出队后访问<tspan font-size="19" x="684.946" y="-279">广度优先遍历：入队出队操作</tspan><tspan font-size="19" x="684.946" y="-256">深度优先遍历：入栈出栈操作</tspan></text></g></svg>