<svg width="1280" height="720" xmlns="http://www.w3.org/2000/svg" xmlns:xlink="http://www.w3.org/1999/xlink" overflow="hidden"><defs><clipPath id="clip0"><rect x="0" y="0" width="1280" height="720"/></clipPath></defs><g clip-path="url(#clip0)"><rect x="0" y="0" width="1280" height="720" fill="#FFFFFF"/><text font-family="Fira Code,Fira Code_MSFontService,sans-serif" font-weight="400" font-size="16" transform="translate(24.0872 31)">void InOrder<tspan font-size="16" x="118" y="0">(</tspan><tspan font-size="16" x="127.833" y="0">BiTree</tspan><tspan font-size="16" x="196.667" y="0">T){</tspan><tspan font-size="16" x="39.3333" y="24">SqStack</tspan><tspan font-size="16" x="118" y="24">S; </tspan><tspan font-size="16" x="147.5" y="24">InitStack</tspan><tspan font-size="16" x="236" y="24">(S);</tspan><tspan font-size="16" x="302.333" y="24">// </tspan><tspan font-family="Alibaba PuHuiTi,Alibaba PuHuiTi_MSFontService,sans-serif" font-size="16" x="331.833" y="24">声明并初始化栈</tspan><tspan font-size="16" x="39.3333" y="48">BiTree</tspan><tspan font-size="16" x="108.167" y="48">p = T;</tspan><tspan font-size="16" x="302.333" y="48">// </tspan><tspan font-family="Alibaba PuHuiTi,Alibaba PuHuiTi_MSFontService,sans-serif" font-size="16" x="331.833" y="48">初始化遍历指针</tspan>p<tspan font-size="16" x="39.3333" y="72">while(p || </tspan><tspan font-size="16" x="147.5" y="72">!</tspan>i<tspan font-size="16" x="167.167" y="72">sEmpty</tspan><tspan font-size="16" x="226.167" y="72">(S)){</tspan><tspan font-size="16" x="302.333" y="72">// </tspan><tspan font-family="Alibaba PuHuiTi,Alibaba PuHuiTi_MSFontService,sans-serif" font-size="16" x="331.833" y="72">栈不为空或</tspan><tspan font-size="16" x="410.167" y="72">p</tspan><tspan font-family="Alibaba PuHuiTi,Alibaba PuHuiTi_MSFontService,sans-serif" font-size="16" x="420" y="72">不空时循环</tspan><tspan font-size="16" x="78.6667" y="96">if(p){</tspan><tspan font-size="16" x="302.333" y="96">// </tspan><tspan font-family="Alibaba PuHuiTi,Alibaba PuHuiTi_MSFontService,sans-serif" font-size="16" x="331.833" y="96">一直向左走</tspan><tspan fill="#A6A6A6" font-size="16" x="118" y="120">Visit(p);</tspan><tspan fill="#A6A6A6" font-size="16" x="302.333" y="120">// </tspan><tspan fill="#A6A6A6" font-family="Alibaba PuHuiTi,Alibaba PuHuiTi_MSFontService,sans-serif" font-size="16" x="331.833" y="120">访问当前结点</tspan><tspan font-size="16" x="118" y="144">Push(S, p);</tspan><tspan font-size="16" x="302.333" y="144">// </tspan><tspan font-family="Alibaba PuHuiTi,Alibaba PuHuiTi_MSFontService,sans-serif" font-size="16" x="331.833" y="144">当前结点入栈</tspan><tspan font-size="16" x="118" y="168">p = p </tspan><tspan font-size="16" x="177" y="168">-</tspan>&gt; lchild;<tspan font-size="16" x="302.333" y="168">// </tspan><tspan font-family="Alibaba PuHuiTi,Alibaba PuHuiTi_MSFontService,sans-serif" font-size="16" x="331.833" y="168">左孩子不为空，一直向左走</tspan><tspan font-size="16" x="78.6667" y="192">}</tspan><tspan font-size="16" x="78.6667" y="216">else{</tspan><tspan font-size="16" x="302.333" y="216">// </tspan><tspan font-family="Alibaba PuHuiTi,Alibaba PuHuiTi_MSFontService,sans-serif" font-size="16" x="331.833" y="216">出栈，并转向出栈结点的右子树</tspan><tspan font-size="16" x="118" y="240">Pop(S, p);</tspan><tspan font-size="16" x="302.333" y="240">// </tspan><tspan font-family="Alibaba PuHuiTi,Alibaba PuHuiTi_MSFontService,sans-serif" font-size="16" x="331.833" y="240">栈顶元素出栈</tspan><tspan fill="#A6A6A6" font-size="16" x="118" y="264">Visit(p);</tspan><tspan fill="#A6A6A6" font-size="16" x="302.333" y="264">// </tspan><tspan fill="#A6A6A6" font-family="Alibaba PuHuiTi,Alibaba PuHuiTi_MSFontService,sans-serif" font-size="16" x="331.833" y="264">访问出栈结点</tspan><tspan font-size="16" x="118" y="288">p = p </tspan><tspan font-size="16" x="177" y="288">-</tspan>&gt; rchild;<tspan font-size="16" x="302.333" y="288">// </tspan><tspan font-family="Alibaba PuHuiTi,Alibaba PuHuiTi_MSFontService,sans-serif" font-size="16" x="331.833" y="288">向右子树走，</tspan>p<tspan font-family="Alibaba PuHuiTi,Alibaba PuHuiTi_MSFontService,sans-serif" font-size="16" x="435.667" y="288">赋值为当前结点的右孩子</tspan><tspan font-size="16" x="78.6667" y="336">}</tspan><tspan font-size="16" x="302.333" y="336">// </tspan><tspan font-family="Alibaba PuHuiTi,Alibaba PuHuiTi_MSFontService,sans-serif" font-size="16" x="331.833" y="336">返回</tspan><tspan font-size="16" x="363.167" y="336">while</tspan><tspan font-family="Alibaba PuHuiTi,Alibaba PuHuiTi_MSFontService,sans-serif" font-size="16" x="412.333" y="336">循环继续进入</tspan>if<tspan font-size="16" x="526" y="336">-</tspan>else<tspan font-family="Alibaba PuHuiTi,Alibaba PuHuiTi_MSFontService,sans-serif" font-size="16" x="575.167" y="336">语句</tspan><tspan font-size="16" x="39.3333" y="360">}</tspan><tspan font-size="16" x="0" y="384">}</tspan></text><path d="M133 135.5C133 133.015 135.015 131 137.5 131L573.5 131C575.985 131 578 133.015 578 135.5L578 153.5C578 155.985 575.985 158 573.5 158L137.5 158C135.015 158 133 155.985 133 153.5Z" stroke="#7F7F7F" stroke-width="2" stroke-miterlimit="8" stroke-dasharray="6 2" fill="none" fill-rule="evenodd"/><path d="M498 135.5C498 133.015 500.015 131 502.5 131L573.5 131C575.985 131 578 133.015 578 135.5L578 153.5C578 155.985 575.985 158 573.5 158L502.5 158C500.015 158 498 155.985 498 153.5Z" fill="#7F7F7F" fill-rule="evenodd"/><text fill="#FFFFFF" font-family="Alibaba PuHuiTi,Alibaba PuHuiTi_MSFontService,sans-serif" font-weight="400" font-size="15" transform="translate(508.987 149)">先序遍历<tspan fill="#000000" font-family="Fira Code,Fira Code_MSFontService,sans-serif" font-size="16" x="88.2385" y="291">else{ </tspan><tspan fill="#000000" font-family="Fira Code,Fira Code_MSFontService,sans-serif" font-size="16" x="127.572" y="315">GetTop</tspan><tspan fill="#000000" font-family="Fira Code,Fira Code_MSFontService,sans-serif" font-size="16" x="186.572" y="315">(S, p);</tspan><tspan fill="#000000" font-family="Fira Code,Fira Code_MSFontService,sans-serif" font-size="16" x="315.038" y="315">// </tspan><tspan fill="#000000" font-size="16" x="344.538" y="315">读取栈顶结点</tspan><tspan fill="#000000" font-family="Fira Code,Fira Code_MSFontService,sans-serif" font-size="16" x="127.572" y="339">if(p </tspan><tspan fill="#000000" font-family="Fira Code,Fira Code_MSFontService,sans-serif" font-size="16" x="176.738" y="339">-</tspan><tspan fill="#000000" font-family="Fira Code,Fira Code_MSFontService,sans-serif" font-size="16" x="186.572" y="339">&gt; </tspan><tspan fill="#000000" font-family="Fira Code,Fira Code_MSFontService,sans-serif" font-size="16" x="206.238" y="339">rchild</tspan><tspan fill="#000000" font-family="Fira Code,Fira Code_MSFontService,sans-serif" font-size="16" x="275.072" y="339">&amp;&amp; p </tspan><tspan fill="#000000" font-family="Fira Code,Fira Code_MSFontService,sans-serif" font-size="16" x="324.238" y="339">-</tspan><tspan fill="#000000" font-family="Fira Code,Fira Code_MSFontService,sans-serif" font-size="16" x="334.072" y="339">&gt; </tspan><tspan fill="#000000" font-family="Fira Code,Fira Code_MSFontService,sans-serif" font-size="16" x="353.738" y="339">rchild</tspan><tspan fill="#000000" font-family="Fira Code,Fira Code_MSFontService,sans-serif" font-size="16" x="422.572" y="339">!= r)</tspan><tspan fill="#000000" font-family="Fira Code,Fira Code_MSFontService,sans-serif" font-size="16" x="491.905" y="339">// </tspan><tspan fill="#000000" font-size="16" x="521.405" y="339">若右子树存在，且未被访问过</tspan><tspan fill="#000000" font-family="Fira Code,Fira Code_MSFontService,sans-serif" font-size="16" x="166.905" y="363">p = p </tspan><tspan fill="#000000" font-family="Fira Code,Fira Code_MSFontService,sans-serif" font-size="16" x="225.905" y="363">-</tspan><tspan fill="#000000" font-family="Fira Code,Fira Code_MSFontService,sans-serif" font-size="16" x="235.738" y="363">&gt; </tspan><tspan fill="#000000" font-family="Fira Code,Fira Code_MSFontService,sans-serif" font-size="16" x="255.405" y="363">rchild</tspan><tspan fill="#000000" font-family="Fira Code,Fira Code_MSFontService,sans-serif" font-size="16" x="314.405" y="363">; </tspan><tspan fill="#000000" font-family="Fira Code,Fira Code_MSFontService,sans-serif" font-size="16" x="376.238" y="363">// </tspan><tspan fill="#000000" font-size="16" x="405.738" y="363">转向右子树</tspan><tspan fill="#000000" font-family="Fira Code,Fira Code_MSFontService,sans-serif" font-size="16" x="127.572" y="387">else{</tspan><tspan fill="#000000" font-family="Fira Code,Fira Code_MSFontService,sans-serif" font-size="16" x="315.038" y="387">// </tspan><tspan fill="#000000" font-size="16" x="344.538" y="387">否则，弹出当前结点并访问</tspan><tspan fill="#000000" font-family="Fira Code,Fira Code_MSFontService,sans-serif" font-size="16" x="166.905" y="411">pop(S, p); </tspan><tspan fill="#000000" font-family="Fira Code,Fira Code_MSFontService,sans-serif" font-size="16" x="315.038" y="411">// </tspan><tspan fill="#000000" font-size="16" x="344.538" y="411">将结点弹出</tspan><tspan fill="#000000" font-family="Fira Code,Fira Code_MSFontService,sans-serif" font-size="16" x="166.905" y="435">Visit(p);</tspan><tspan fill="#000000" font-family="Fira Code,Fira Code_MSFontService,sans-serif" font-size="16" x="315.038" y="435">// </tspan><tspan fill="#000000" font-size="16" x="344.538" y="435">访问该节点</tspan><tspan fill="#000000" font-family="Fira Code,Fira Code_MSFontService,sans-serif" font-size="16" x="166.905" y="459">r = p; </tspan><tspan fill="#000000" font-family="Fira Code,Fira Code_MSFontService,sans-serif" font-size="16" x="315.038" y="459">// </tspan><tspan fill="#000000" font-size="16" x="344.538" y="459">记录最近访问过的节点</tspan><tspan fill="#000000" font-family="Fira Code,Fira Code_MSFontService,sans-serif" font-size="16" x="166.905" y="483">p = NULL;</tspan><tspan fill="#000000" font-family="Fira Code,Fira Code_MSFontService,sans-serif" font-size="16" x="315.038" y="483">// </tspan><tspan fill="#000000" font-size="16" x="344.538" y="483">节点访问完后，重置</tspan><tspan fill="#000000" font-family="Fira Code,Fira Code_MSFontService,sans-serif" font-size="16" x="485.538" y="483">p</tspan><tspan fill="#000000" font-size="16" x="495.372" y="483">指针</tspan><tspan fill="#000000" font-family="Fira Code,Fira Code_MSFontService,sans-serif" font-size="16" x="127.572" y="507">}// else</tspan><tspan fill="#000000" font-family="Fira Code,Fira Code_MSFontService,sans-serif" font-size="16" x="88.2385" y="531">}//else</tspan><tspan fill="#000000" font-family="Fira Code,Fira Code_MSFontService,sans-serif" font-size="16" x="315.038" y="531">// </tspan><tspan fill="#000000" font-size="16" x="344.538" y="531">继续进入</tspan><tspan fill="#000000" font-family="Fira Code,Fira Code_MSFontService,sans-serif" font-size="16" x="407.205" y="531">if</tspan><tspan fill="#000000" font-family="Fira Code,Fira Code_MSFontService,sans-serif" font-size="16" x="426.872" y="531">-</tspan><tspan fill="#000000" font-family="Fira Code,Fira Code_MSFontService,sans-serif" font-size="16" x="436.705" y="531">else</tspan><tspan fill="#000000" font-size="16" x="476.038" y="531">语句</tspan></text><path d="M133 279.5C133 277.015 135.015 275 137.5 275L573.5 275C575.985 275 578 277.015 578 279.5L578 297.5C578 299.985 575.985 302 573.5 302L137.5 302C135.015 302 133 299.985 133 297.5Z" stroke="#7F7F7F" stroke-width="2" stroke-miterlimit="8" stroke-dasharray="6 2" fill="none" fill-rule="evenodd"/><path d="M498 279.5C498 277.015 500.015 275 502.5 275L573.5 275C575.985 275 578 277.015 578 279.5L578 297.5C578 299.985 575.985 302 573.5 302L502.5 302C500.015 302 498 299.985 498 297.5Z" fill="#7F7F7F" fill-rule="evenodd"/><text fill="#FFFFFF" font-family="Alibaba PuHuiTi,Alibaba PuHuiTi_MSFontService,sans-serif" font-weight="400" font-size="15" transform="translate(508.987 293)">中序遍历</text><path d="M95 231.509C95 227.914 97.9144 225 101.509 225L637.491 225C641.086 225 644 227.914 644 231.509L644 372.491C644 376.086 641.086 379 637.491 379L101.509 379C97.9144 379 95 376.086 95 372.491Z" stroke="#7F7F7F" stroke-width="2" stroke-miterlimit="8" stroke-dasharray="6 2" fill="none" fill-rule="evenodd"/><path d="M588 427.667C588 421.223 593.223 416 599.667 416L1232.33 416C1238.78 416 1244 421.223 1244 427.667L1244 680.333C1244 686.777 1238.78 692 1232.33 692L599.667 692C593.223 692 588 686.777 588 680.333Z" stroke="#7F7F7F" stroke-width="2" stroke-miterlimit="8" stroke-dasharray="6 2" fill="none" fill-rule="evenodd"/><path d="M599.866 378.5 602.863 383.698 601.131 384.697 598.134 379.5ZM603.862 385.431 606.859 390.629 605.127 391.628 602.13 386.43ZM607.858 392.362 610.855 397.559 609.123 398.558 606.126 393.361ZM611.854 399.292 614.851 404.49 613.119 405.489 610.122 400.291ZM615.85 406.223 617.87 409.725 616.137 410.724 614.118 407.222ZM619.803 407.071 620.333 416 612.872 411.067Z" fill="#7F7F7F"/><text fill="#7F7F7F" font-family="Alibaba PuHuiTi,Alibaba PuHuiTi_MSFontService,sans-serif" font-weight="400" font-size="15" transform="translate(619.6 401)">后序遍历<tspan fill="#000000" font-family="Fira Code,Fira Code_MSFontService,sans-serif" font-size="16" x="248.435" y="-336">void </tspan><tspan fill="#000000" font-family="Fira Code,Fira Code_MSFontService,sans-serif" font-size="16" x="297.602" y="-336">LevelOrder</tspan><tspan fill="#000000" font-family="Fira Code,Fira Code_MSFontService,sans-serif" font-size="16" x="395.935" y="-336">(</tspan><tspan fill="#000000" font-family="Fira Code,Fira Code_MSFontService,sans-serif" font-size="16" x="405.769" y="-336">BiTree</tspan><tspan fill="#000000" font-family="Fira Code,Fira Code_MSFontService,sans-serif" font-size="16" x="474.602" y="-336">T){</tspan><tspan fill="#000000" font-family="Fira Code,Fira Code_MSFontService,sans-serif" font-size="16" x="287.769" y="-312">LinkQueue</tspan><tspan fill="#000000" font-family="Fira Code,Fira Code_MSFontService,sans-serif" font-size="16" x="386.102" y="-312">Q; </tspan><tspan fill="#000000" font-family="Fira Code,Fira Code_MSFontService,sans-serif" font-size="16" x="415.602" y="-312">InitQueue</tspan><tspan fill="#000000" font-family="Fira Code,Fira Code_MSFontService,sans-serif" font-size="16" x="504.102" y="-312">(Q);</tspan><tspan fill="#000000" font-family="Fira Code,Fira Code_MSFontService,sans-serif" font-size="16" x="287.769" y="-288">BiTree</tspan><tspan fill="#000000" font-family="Fira Code,Fira Code_MSFontService,sans-serif" font-size="16" x="356.602" y="-288">p;</tspan><tspan fill="#000000" font-family="Fira Code,Fira Code_MSFontService,sans-serif" font-size="16" x="287.769" y="-264">EnQueue</tspan><tspan fill="#000000" font-family="Fira Code,Fira Code_MSFontService,sans-serif" font-size="16" x="356.602" y="-264">(Q, p);</tspan><tspan fill="#000000" font-family="Fira Code,Fira Code_MSFontService,sans-serif" font-size="16" x="287.769" y="-240">while(!</tspan><tspan fill="#000000" font-family="Fira Code,Fira Code_MSFontService,sans-serif" font-size="16" x="356.602" y="-240">IsEmpty</tspan><tspan fill="#000000" font-family="Fira Code,Fira Code_MSFontService,sans-serif" font-size="16" x="425.435" y="-240">(Q)){</tspan><tspan fill="#000000" font-family="Fira Code,Fira Code_MSFontService,sans-serif" font-size="16" x="327.102" y="-216">DeQueue</tspan><tspan fill="#000000" font-family="Fira Code,Fira Code_MSFontService,sans-serif" font-size="16" x="395.935" y="-216">(Q, p);</tspan><tspan fill="#000000" font-family="Fira Code,Fira Code_MSFontService,sans-serif" font-size="16" x="327.102" y="-192">Visit(p);</tspan><tspan fill="#000000" font-family="Fira Code,Fira Code_MSFontService,sans-serif" font-size="16" x="327.102" y="-168">if(p </tspan><tspan fill="#000000" font-family="Fira Code,Fira Code_MSFontService,sans-serif" font-size="16" x="376.269" y="-168">-</tspan><tspan fill="#000000" font-family="Fira Code,Fira Code_MSFontService,sans-serif" font-size="16" x="386.102" y="-168">&gt; </tspan><tspan fill="#000000" font-family="Fira Code,Fira Code_MSFontService,sans-serif" font-size="16" x="405.769" y="-168">lchild</tspan><tspan fill="#000000" font-family="Fira Code,Fira Code_MSFontService,sans-serif" font-size="16" x="474.602" y="-168">!= NULL)</tspan><tspan fill="#000000" font-family="Fira Code,Fira Code_MSFontService,sans-serif" font-size="16" x="366.435" y="-144">EnQueue</tspan><tspan fill="#000000" font-family="Fira Code,Fira Code_MSFontService,sans-serif" font-size="16" x="435.269" y="-144">(Q, p </tspan><tspan fill="#000000" font-family="Fira Code,Fira Code_MSFontService,sans-serif" font-size="16" x="494.269" y="-144">-</tspan><tspan fill="#000000" font-family="Fira Code,Fira Code_MSFontService,sans-serif" font-size="16" x="504.102" y="-144">&gt; </tspan><tspan fill="#000000" font-family="Fira Code,Fira Code_MSFontService,sans-serif" font-size="16" x="523.769" y="-144">lchild</tspan><tspan fill="#000000" font-family="Fira Code,Fira Code_MSFontService,sans-serif" font-size="16" x="582.769" y="-144">);</tspan><tspan fill="#000000" font-family="Fira Code,Fira Code_MSFontService,sans-serif" font-size="16" x="327.102" y="-120">if(p </tspan><tspan fill="#000000" font-family="Fira Code,Fira Code_MSFontService,sans-serif" font-size="16" x="376.269" y="-120">-</tspan><tspan fill="#000000" font-family="Fira Code,Fira Code_MSFontService,sans-serif" font-size="16" x="386.102" y="-120">&gt; </tspan><tspan fill="#000000" font-family="Fira Code,Fira Code_MSFontService,sans-serif" font-size="16" x="405.769" y="-120">rchild</tspan><tspan fill="#000000" font-family="Fira Code,Fira Code_MSFontService,sans-serif" font-size="16" x="474.602" y="-120">!= NULL)</tspan><tspan fill="#000000" font-family="Fira Code,Fira Code_MSFontService,sans-serif" font-size="16" x="366.435" y="-96">EnQueue</tspan><tspan fill="#000000" font-family="Fira Code,Fira Code_MSFontService,sans-serif" font-size="16" x="435.269" y="-96">(Q, p </tspan><tspan fill="#000000" font-family="Fira Code,Fira Code_MSFontService,sans-serif" font-size="16" x="494.269" y="-96">-</tspan><tspan fill="#000000" font-family="Fira Code,Fira Code_MSFontService,sans-serif" font-size="16" x="504.102" y="-96">&gt; </tspan><tspan fill="#000000" font-family="Fira Code,Fira Code_MSFontService,sans-serif" font-size="16" x="523.769" y="-96">rchild</tspan><tspan fill="#000000" font-family="Fira Code,Fira Code_MSFontService,sans-serif" font-size="16" x="582.769" y="-96">);</tspan><tspan fill="#000000" font-family="Fira Code,Fira Code_MSFontService,sans-serif" font-size="16" x="287.769" y="-72">}</tspan><tspan fill="#000000" font-family="Fira Code,Fira Code_MSFontService,sans-serif" font-size="16" x="248.435" y="-48">}</tspan></text><path d="M861 52.3342C861 46.0745 866.074 41 872.334 41L1232.67 41C1238.93 41 1244 46.0745 1244 52.3342L1244 352.666C1244 358.926 1238.93 364 1232.67 364L872.334 364C866.074 364 861 358.926 861 352.666Z" stroke="#7F7F7F" stroke-width="2" stroke-miterlimit="8" stroke-dasharray="6 2" fill="none" fill-rule="evenodd"/><path d="M861 21.87C861 19.7326 862.733 18 864.87 18L967.13 18C969.267 18 971 19.7326 971 21.87L971 38.13C971 40.2673 969.267 42 967.13 42L864.87 42C862.733 42 861 40.2673 861 38.13Z" fill="#7F7F7F" fill-rule="evenodd"/><text fill="#FFFFFF" font-family="Alibaba PuHuiTi,Alibaba PuHuiTi_MSFontService,sans-serif" font-weight="400" font-size="15" transform="translate(871.801 34)">树的层序遍历</text></g></svg>